<svg viewBox="1 -16 511.99998 511" xmlns="http://www.w3.org/2000/svg"><path d="m31.875 348.304688v-121.742188c0-123.210938 100.800781-226 224.011719-226.0625 123.636719-.0625 224.238281 100.503906 224.238281 224.125v123.6875c0 20.976562-9.785156 40.847656-26.640625 53.335938-30.414063 22.539062-90.410156 51.621093-197.484375 51.621093-106.253906 0-166.144531-28.640625-196.777344-51.101562-17.167968-12.589844-27.347656-32.574219-27.347656-53.863281zm0 0" fill="#eaeaea"/><path d="m172.910156 173.144531c0-103.703125 73.558594-152.308593 112.371094-170.738281-9.617188-1.261719-19.4375-1.910156-29.394531-1.90625-123.210938.0625-224.011719 102.851562-224.011719 226.0625v121.738281c0 21.292969 10.179688 41.277344 27.347656 53.867188 30.632813 22.460937 90.523438 51.101562 196.777344 51.101562 1.472656 0 2.9375-.007812 4.390625-.019531-81.59375-53.929688-87.480469-163.875-87.480469-280.105469zm0 0" fill="#d8d7da"/><path d="m423.660156 275.3125c0 32.285156-17.421875 62.097656-45.628906 77.800781-27.824219 15.488281-68.441406 30.292969-122.03125 30.292969s-94.207031-14.804688-122.03125-30.292969c-28.207031-15.703125-45.628906-45.515625-45.628906-77.800781v-59.5625c0-92.597656 75.066406-167.660156 167.660156-167.660156 92.597656 0 167.660156 75.0625 167.660156 167.660156zm0 0" fill="#72cef7"/><path d="m217.34375 52.566406c-73.964844 17.453125-129.003906 83.886719-129.003906 163.183594v59.5625c0 32.285156 17.421875 62.097656 45.628906 77.800781 16.980469 9.449219 38.738281 18.652344 65.289062 24.386719-23.875-56.488281-26.347656-129.109375-26.347656-204.355469 0-53.925781 19.882813-92.945312 44.433594-120.578125zm0 0" fill="#53b8e5"/><path d="m256 343.367188c-110.410156 0-165.742188-62.851563-167.605469-65.003907 1.054688 31.101563 18.257813 59.542969 45.574219 74.75 27.824219 15.488281 68.441406 30.292969 122.03125 30.292969s94.207031-14.804688 122.03125-30.292969c27.316406-15.207031 44.519531-43.648437 45.574219-74.75-1.863281 2.152344-57.195313 65.003907-167.605469 65.003907zm0 0" fill="#898890"/><path d="m63.75 189.589844c0-9.082032-7.363281-16.445313-16.445312-16.445313h-11.476563c-19.707031 0-35.828125 16.121094-35.828125 35.824219 0 19.707031 16.121094 35.828125 35.828125 35.828125h11.476563c9.082031 0 16.445312-7.363281 16.445312-16.445313zm0 0" fill="#66d3d0"/><path d="m448.25 189.589844c0-9.082032 7.363281-16.445313 16.445312-16.445313h11.476563c19.707031 0 35.828125 16.121094 35.828125 35.824219 0 19.707031-16.121094 35.828125-35.828125 35.828125h-11.476563c-9.082031 0-16.445312-7.363281-16.445312-16.445313zm0 0" fill="#7de2e2"/><path d="m35.671875 405.507812c-16.113281 0-29.292969-13.179687-29.292969-29.289062v-32.421875c0-16.109375 13.179688-29.292969 29.292969-29.292969 16.105469 0 29.289063 13.179688 29.289063 29.292969v32.421875c0 16.109375-13.179688 29.289062-29.289063 29.289062zm0 0" fill="#ffa5b5"/><path d="m75.871094 434.027344c-16.109375 0-29.289063-13.179688-29.289063-29.289063v-32.425781c0-16.109375 13.179688-29.289062 29.289063-29.289062s29.289062 13.179687 29.289062 29.289062v32.425781c0 16.109375-13.179687 29.289063-29.289062 29.289063zm0 0" fill="#ff737d"/><path d="m116.074219 464.132812c-16.109375 0-29.289063-13.179687-29.289063-29.289062v-32.425781c0-16.109375 13.179688-29.292969 29.289063-29.292969s29.289062 13.183594 29.289062 29.292969v32.425781c0 16.109375-13.179687 29.289062-29.289062 29.289062zm0 0" fill="#ffa5b5"/><path d="m156.273438 479.53125c-16.105469 0-29.289063-13.179688-29.289063-29.292969v-32.421875c0-16.109375 13.179687-29.292968 29.289063-29.292968 16.109374 0 29.292968 13.179687 29.292968 29.292968v32.421875c0 16.113281-13.179687 29.292969-29.292968 29.292969zm0 0" fill="#ff737d"/><g fill="#898890"><path d="m256 442.246094c-4.265625 0-7.726562-3.457032-7.726562-7.722656v-23.925782c0-4.265625 3.460937-7.726562 7.726562-7.726562s7.726562 3.460937 7.726562 7.726562v23.925782c0 4.265624-3.460937 7.722656-7.726562 7.722656zm0 0"/><path d="m229.222656 436.265625c-4.265625 0-7.726562-3.457031-7.726562-7.726563v-11.960937c0-4.265625 3.460937-7.726563 7.726562-7.726563s7.726563 3.460938 7.726563 7.726563v11.960937c0 4.269532-3.460938 7.726563-7.726563 7.726563zm0 0"/><path d="m282.777344 436.265625c-4.265625 0-7.726563-3.457031-7.726563-7.726563v-11.960937c0-4.265625 3.460938-7.726563 7.726563-7.726563s7.726562 3.460938 7.726562 7.726563v11.960937c0 4.269532-3.460937 7.726563-7.726562 7.726563zm0 0"/></g><path d="m354.046875 408.085938c0 8.535156-6.917969 15.453124-15.453125 15.453124s-15.453125-6.917968-15.453125-15.453124c0-8.53125 6.917969-15.453126 15.453125-15.453126s15.453125 6.921876 15.453125 15.453126zm0 0" fill="#7de2e2"/><path d="m406.136719 390.996094c0 8.535156-6.917969 15.453125-15.449219 15.453125-8.535156 0-15.453125-6.917969-15.453125-15.453125s6.917969-15.453125 15.453125-15.453125c8.53125 0 15.449219 6.917969 15.449219 15.453125zm0 0" fill="#7de2e2"/><path d="m256 280.160156c-15.988281 0-28.949219-12.960937-28.949219-28.949218v-21.046876c0-4.363281 3.539063-7.902343 7.902344-7.902343h42.09375c4.363281 0 7.902344 3.539062 7.902344 7.902343v21.046876c-.003907 15.988281-12.960938 28.949218-28.949219 28.949218zm0 0" fill="#57565c"/><path d="m190.042969 251.210938c0-13.578126-13.824219-24.589844-30.875-24.589844-17.054688 0-30.878907 11.011718-30.878907 24.589844 0 13.582031 13.824219 24.589843 30.878907 24.589843 17.050781 0 30.875-11.007812 30.875-24.589843zm0 0" fill="#ffa6bb"/><path d="m383.710938 251.210938c0-13.578126-13.824219-24.589844-30.878907-24.589844-17.050781 0-30.875 11.011718-30.875 24.589844 0 13.582031 13.824219 24.589843 30.875 24.589843 17.054688 0 30.878907-11.007812 30.878907-24.589843zm0 0" fill="#ffa6bb"/><path d="m339.089844 237.714844c-4.265625 0-7.726563-3.460938-7.726563-7.726563v-12.828125c0-4.265625 3.460938-7.726562 7.726563-7.726562 4.269531 0 7.726562 3.460937 7.726562 7.726562v12.828125c0 4.265625-3.457031 7.726563-7.726562 7.726563zm0 0" fill="#57565c"/><path d="m172.910156 237.714844c-4.269531 0-7.726562-3.460938-7.726562-7.726563v-12.828125c0-4.265625 3.457031-7.726562 7.726562-7.726562 4.265625 0 7.726563 3.460937 7.726563 7.726562v12.828125c0 4.265625-3.460938 7.726563-7.726563 7.726563zm0 0" fill="#57565c"/><path d="m313.457031 122.382812c6.425781 6.425782 16.949219 6.425782 23.375 0l31.285157-31.285156c-8.28125-7.453125-17.3125-14.089844-26.960938-19.792968l-27.699219 27.699218c-6.429687 6.429688-6.429687 16.949219 0 23.378906zm0 0" fill="#fff"/><path d="m185.457031 334.054688c-63.523437-17.578126-95.652343-54.058594-97.066406-55.691407 1.058594 31.101563 18.257813 59.542969 45.578125 74.75 16.980469 9.449219 38.738281 18.652344 65.289062 24.386719-5.75-13.609375-10.269531-28.15625-13.800781-43.445312zm0 0" fill="#75747a"/><path d="m263.949219 171.886719c-6.425781-6.425781-6.425781-16.945313 0-23.375l5.453125-5.453125c6.429687-6.429688 16.949218-6.429688 23.378906 0 6.425781 6.429687 6.425781 16.949218 0 23.375l-5.453125 5.453125c-6.429687 6.429687-16.949219 6.429687-23.378906 0zm0 0" fill="#fff"/></svg>