<?xml version="1.0" encoding="iso-8859-1"?>
<!-- Generator: Adobe Illustrator 19.0.0, SVG Export Plug-In . SVG Version: 6.00 Build 0)  -->
<svg version="1.1" id="Layer_1" xmlns="http://www.w3.org/2000/svg" xmlns:xlink="http://www.w3.org/1999/xlink" x="0px" y="0px"
	 viewBox="0 0 512 512" style="enable-background:new 0 0 512 512;" xml:space="preserve">
<path style="fill:#E8E8E8;" d="M67.335,424.754c-6.335,0-12.249,3.355-15.336,8.887c-0.017,0.031-0.035,0.062-0.052,0.094
	c-7.589,13.628-11.92,27.791-14.337,40.561c-0.917,4.843,2.815,9.317,7.744,9.317h66.296v-58.858L67.335,424.754L67.335,424.754z"/>
<path style="opacity:0.1;enable-background:new    ;" d="M67.335,424.754c-6.335,0-12.249,3.355-15.336,8.887
	c-0.017,0.031-0.035,0.062-0.052,0.094c-7.589,13.628-11.92,27.791-14.337,40.561c-0.917,4.843,2.815,9.317,7.744,9.317h66.296
	v-58.858L67.335,424.754L67.335,424.754z"/>
<path style="fill:#E8E8E8;" d="M444.665,424.754c6.335,0,12.249,3.355,15.336,8.887c0.017,0.031,0.035,0.062,0.052,0.094
	c7.589,13.628,11.92,27.791,14.337,40.561c0.917,4.843-2.815,9.317-7.744,9.317H400.35v-58.858L444.665,424.754L444.665,424.754z"/>
<path style="opacity:0.1;enable-background:new    ;" d="M444.665,424.754c6.335,0,12.249,3.355,15.336,8.887
	c0.017,0.031,0.035,0.062,0.052,0.094c7.589,13.628,11.92,27.791,14.337,40.561c0.917,4.843-2.815,9.317-7.744,9.317H400.35v-58.858
	L444.665,424.754L444.665,424.754z"/>
<ellipse style="fill:#E8E8E8;" cx="47.14" cy="219.621" rx="47.14" ry="50.14"/>
<ellipse style="opacity:0.1;enable-background:new    ;" cx="47.14" cy="219.621" rx="47.14" ry="50.14"/>
<ellipse style="fill:#E8E8E8;" cx="464.86" cy="219.621" rx="47.14" ry="50.14"/>
<ellipse style="opacity:0.1;enable-background:new    ;" cx="464.86" cy="219.621" rx="47.14" ry="50.14"/>
<path style="fill:#E8E8E8;" d="M135.784,399.315c-69.777,11.156-79.65,73.557-80.645,100.153c-0.246,6.566,5.025,12.01,11.595,12.01
	h69.05V399.315z"/>
<path style="opacity:0.07;enable-background:new    ;" d="M125.298,401.496c-28.824,28.214-47.31,66.94-49.248,109.982h59.734
	V399.315C132.121,399.9,128.639,400.641,125.298,401.496z"/>
<path style="fill:#E8E8E8;" d="M376.216,399.315c69.777,11.156,79.65,73.557,80.645,100.153c0.246,6.566-5.025,12.01-11.595,12.01
	h-69.05V399.315z"/>
<path style="opacity:0.07;enable-background:new    ;" d="M386.702,401.496c28.824,28.214,47.31,66.94,49.248,109.982h-59.734
	V399.315C379.879,399.9,383.361,400.641,386.702,401.496z"/>
<path style="fill:#E8E8E8;" d="M420.427,511.478c0-90.81-73.616-164.427-164.427-164.427S91.573,420.668,91.573,511.478H420.427z"/>
<path style="fill:#4DB1E0;" d="M216.184,511.478c0-22.819-18.499-41.318-41.318-41.318s-41.318,18.499-41.318,41.318H216.184z"/>
<path style="fill:#EC8087;" d="M214.352,472.711c-3.001-3.397-8.187-3.718-11.584-0.718l-44.699,39.486h24.792l30.773-27.184
	C217.031,481.293,217.352,476.108,214.352,472.711z"/>
<path style="opacity:0.1;enable-background:new    ;" d="M256,347.052c-56.603,0-106.522,28.604-136.101,72.142
	c37.381,29.671,84.668,47.4,136.101,47.4s98.72-17.73,136.101-47.4C362.522,375.655,312.603,347.052,256,347.052z"/>
<circle style="fill:#E8E8E8;" cx="256" cy="219.621" r="219.1"/>
<path style="opacity:0.07;enable-background:new    ;" d="M256,0.524c-18.483,0-36.427,2.3-53.573,6.609v130.284h107.145V7.133
	C292.427,2.823,274.483,0.524,256,0.524z"/>
<path style="fill:#4DB1E0;" d="M256,364.207c-49.591,0-96.559-13.955-132.252-39.296C85.129,297.493,63.86,260.103,63.86,219.626
	s21.269-77.868,59.888-105.286C159.441,88.999,206.409,75.044,256,75.044s96.558,13.955,132.251,39.296
	c38.62,27.418,59.889,64.81,59.889,105.286s-21.268,77.867-59.889,105.286C352.558,350.253,305.591,364.207,256,364.207z"/>
<ellipse style="fill:#F6CDB5;" cx="256" cy="219.621" rx="163.97" ry="116.41"/>
<g>
	<path style="fill:#394049;" d="M139.358,209.306c-4.142,0-7.5-3.358-7.5-7.5v-23.363c0-4.142,3.358-7.5,7.5-7.5s7.5,3.358,7.5,7.5
		v23.363C146.858,205.949,143.5,209.306,139.358,209.306z"/>
	<path style="fill:#394049;" d="M372.642,209.306c-4.143,0-7.5-3.358-7.5-7.5v-23.363c0-4.142,3.357-7.5,7.5-7.5s7.5,3.358,7.5,7.5
		v23.363C380.142,205.949,376.784,209.306,372.642,209.306z"/>
</g>
<g>
	<path style="fill:#EC8087;" d="M155.06,241.602h-31.404c-4.142,0-7.5-3.358-7.5-7.5s3.358-7.5,7.5-7.5h31.404
		c4.142,0,7.5,3.358,7.5,7.5S159.202,241.602,155.06,241.602z"/>
	<path style="fill:#EC8087;" d="M388.337,241.602h-31.405c-4.143,0-7.5-3.358-7.5-7.5s3.357-7.5,7.5-7.5h31.405
		c4.143,0,7.5,3.358,7.5,7.5S392.479,241.602,388.337,241.602z"/>
</g>
<path style="fill:#394049;" d="M256,241.602c-10.03,0-19.602-4.831-25.604-12.923c-2.468-3.327-1.772-8.024,1.555-10.492
	c3.326-2.469,8.024-1.772,10.492,1.555c3.234,4.359,8.175,6.859,13.557,6.859c5.382,0,10.322-2.5,13.557-6.859
	c2.468-3.326,7.164-4.023,10.492-1.555c3.326,2.468,4.023,7.165,1.555,10.492C275.602,236.771,266.029,241.602,256,241.602z"/>
<ellipse style="opacity:0.2;fill:#4DB1E0;enable-background:new    ;" cx="256" cy="219.621" rx="163.97" ry="116.41"/>
<g>
</g>
<g>
</g>
<g>
</g>
<g>
</g>
<g>
</g>
<g>
</g>
<g>
</g>
<g>
</g>
<g>
</g>
<g>
</g>
<g>
</g>
<g>
</g>
<g>
</g>
<g>
</g>
<g>
</g>
</svg>
