<?xml version="1.0" encoding="iso-8859-1"?>
<!-- Generator: Adobe Illustrator 19.0.0, SVG Export Plug-In . SVG Version: 6.00 Build 0)  -->
<svg version="1.1" id="Capa_1" xmlns="http://www.w3.org/2000/svg" xmlns:xlink="http://www.w3.org/1999/xlink" x="0px" y="0px"
	 viewBox="0 0 512 512" style="enable-background:new 0 0 512 512;" xml:space="preserve">
<path style="fill:#0080BF;" d="M128.503,70.179c-14.69-14.69-38.508-14.69-53.198,0s-14.69,38.508,0,53.198"/>
<path style="fill:#0276A3;" d="M90.044,61.082c-5.387,1.785-10.453,4.811-14.739,9.098c-14.69,14.69-14.69,38.508,0,53.198
	L99.142,99.54C88.738,89.135,85.712,74.157,90.044,61.082z"/>
<polyline style="fill:#515B65;" points="185.242,306.063 161.814,329.491 182.502,350.179 205.93,326.751 326.749,205.932 
	350.178,182.504 329.49,161.816 306.061,185.244 "/>
<path style="fill:#D5D6DB;" d="M217.62,143.559c13.942-0.894,28.194,3.989,38.857,14.652l119.425,119.424
	c4.14,4.14,4.14,10.852,0,14.992l-83.275,83.275c-4.14,4.14-10.852,4.14-14.992,0L158.208,256.478
	c-11.497-11.497-16.277-27.167-14.334-42.129"/>
<path style="fill:#C4C4C6;" d="M174.767,184.694l-30.892,29.654c-1.944,14.962,2.837,30.633,14.334,42.129l119.425,119.425
	c4.14,4.14,10.852,4.14,14.992,0l23.535-23.535l-126.92-126.921C178.096,214.301,173.282,199.236,174.767,184.694z"/>
<path style="fill:#D5D6DB;" d="M217.62,143.559c18.679-45.632,9.487-99.982-27.559-137.028L11.657,184.935
	c35.753,35.753,87.628,45.558,132.218,29.414L217.62,143.559z"/>
<path style="fill:#C4C4C6;" d="M185.47,174.422l-41.597,39.926c-44.586,16.144-96.465,6.343-132.211-29.414l41.368-41.378
	C88.137,178.664,141.354,189.322,185.47,174.422z"/>
<g>
	
		<rect x="11.859" y="337.617" transform="matrix(-0.7071 0.7071 -0.7071 -0.7071 476.9672 596.586)" style="fill:#0080BF;" width="206.135" height="118.919"/>
	
		<rect x="294.006" y="55.465" transform="matrix(0.7071 -0.7071 0.7071 0.7071 35.0366 314.4338)" style="fill:#0080BF;" width="206.135" height="118.919"/>
</g>
<rect x="218.472" y="270.216" transform="matrix(-0.7071 0.7071 -0.7071 -0.7071 695.2052 287.9953)" style="fill:#F2B400;" width="138.97" height="35.526"/>
<rect x="232.4" y="303.825" transform="matrix(-0.7071 0.7071 -0.7071 -0.7071 661.587 369.1383)" style="fill:#D19602;" width="43.885" height="35.526"/>
<g>
	
		<rect x="314.605" y="130.091" transform="matrix(-0.7071 -0.7071 0.7071 -0.7071 541.0384 499.96)" style="fill:#D5D6DB;" width="118.919" height="15.673"/>
	
		<rect x="360.616" y="84.076" transform="matrix(-0.7071 -0.7071 0.7071 -0.7071 652.1216 453.9437)" style="fill:#D5D6DB;" width="118.919" height="15.673"/>
	
		<rect x="32.459" y="412.244" transform="matrix(-0.7071 -0.7071 0.7071 -0.7071 -140.1273 782.1195)" style="fill:#D5D6DB;" width="118.919" height="15.673"/>
	
		<rect x="78.471" y="366.221" transform="matrix(-0.7071 -0.7071 0.7071 -0.7071 -29.0374 736.0871)" style="fill:#D5D6DB;" width="118.919" height="15.673"/>
</g>
<g>
</g>
<g>
</g>
<g>
</g>
<g>
</g>
<g>
</g>
<g>
</g>
<g>
</g>
<g>
</g>
<g>
</g>
<g>
</g>
<g>
</g>
<g>
</g>
<g>
</g>
<g>
</g>
<g>
</g>
</svg>
